<svg width="69" height="189" viewBox="0 0 69 189" fill="none" xmlns="http://www.w3.org/2000/svg">
<path d="M89.0641 32.0735C89.004 40.7942 87.4403 62.4686 81.6666 79.3997C75.8929 96.3309 67.9963 113.483 64.7697 119.943C73.4531 108.335 95.2818 84.0899 113.13 79.9702C135.44 74.8206 148.777 89.055 154.37 98.2862C159.964 107.517 159.105 129.432 152.41 126.204C145.714 122.976 153.917 112.779 168.414 112.525C180.013 112.323 188.25 124.33 190.919 130.359M49.7987 34.9848C48.3667 37.5677 44.4453 42.2313 40.2165 40.2222C35.9876 38.2131 33.0578 35.8122 32.1215 34.8629C33.5243 36.5226 36.0393 40.9712 34.8767 45.4888C33.7142 50.0064 33.8917 51.6104 34.1258 51.8477C35.431 50.5603 38.8189 48.0616 41.9281 48.3659C45.0374 48.6702 48.63 50.6513 50.0377 51.6038C48.5162 50.0613 45.6898 46.3412 46.5559 43.8015C47.4219 41.2618 49.0786 36.8655 49.7987 34.9848Z" stroke="#7D57A4" stroke-width="4" stroke-linecap="round" stroke-linejoin="round"/>
<path d="M50.9449 73.8845C53.7619 75.5539 58.8799 81.9297 56.8162 94.078M2.12642 77.7907C4.3631 78.1597 11.0153 80.8219 19.7305 88.5189C28.4458 96.2159 36.4699 105.016 39.3926 108.454" stroke="#7D57A4" stroke-width="4" stroke-linecap="round" stroke-linejoin="round"/>
</svg>
