<svg width="20" height="20" viewBox="0 0 20 20" fill="none" xmlns="http://www.w3.org/2000/svg">
<g clip-path="url(#clip0_69_1842)">
<path d="M5.78328 4.16677C5.78306 4.6088 5.60726 5.03263 5.29454 5.34504C4.98182 5.65744 4.55781 5.83282 4.11578 5.8326C3.67376 5.83238 3.24992 5.65657 2.93752 5.34386C2.62511 5.03114 2.44973 4.60713 2.44995 4.1651C2.45017 3.72307 2.62598 3.29924 2.9387 2.98683C3.25141 2.67443 3.67542 2.49905 4.11745 2.49927C4.55948 2.49949 4.98331 2.6753 5.29572 2.98801C5.60812 3.30073 5.78351 3.72474 5.78328 4.16677ZM5.83328 7.06677H2.49995V17.5001H5.83328V7.06677ZM11.1 7.06677H7.78328V17.5001H11.0666V12.0251C11.0666 8.9751 15.0416 8.69177 15.0416 12.0251V17.5001H18.3333V10.8918C18.3333 5.7501 12.45 5.94177 11.0666 8.46677L11.1 7.06677Z" fill="#181819" fill-opacity="0.5"/>
</g>
<defs>
<clipPath id="clip0_69_1842">
<rect width="20" height="20" fill="white"/>
</clipPath>
</defs>
</svg>
