<svg width="41" height="41" viewBox="0 0 41 41" fill="none" xmlns="http://www.w3.org/2000/svg">
<g clip-path="url(#clip0_69_1857)">
<path d="M20.7401 0.5L21.3883 2.59744H23.4857L21.7873 3.89282L22.4355 5.99026L20.7401 4.69385L19.0426 5.99026L19.6908 3.89282L17.9934 2.59744H20.0908L20.7401 0.5Z" fill="#4A4A4C"/>
<path d="M20.7401 35.0098L21.3883 37.1072H23.4857L21.7893 38.4036L22.4355 40.5L20.7401 39.2046L19.0426 40.5L19.6908 38.4036L17.9934 37.1072H20.0908L20.7401 35.0098Z" fill="#4A4A4C"/>
<path d="M29.3667 3.63721L30.0139 5.73054H32.1114L30.4149 7.03003L31.0631 9.12644L29.3667 7.83003L27.6703 9.12746L28.3185 7.03105L26.6211 5.73054H28.7185L29.3667 3.63721Z" fill="#4A4A4C"/>
<path d="M36.4261 9.58398L37.0743 11.6804H39.1707L37.4743 12.9768L38.1225 15.0732L36.4261 13.7778L34.7296 15.0742L35.3779 12.9778L33.6804 11.6794H35.7768L36.4261 9.58398Z" fill="#4A4A4C"/>
<path d="M36.4263 26.3818L37.0734 28.4793H39.1709L37.4745 29.7757L38.1227 31.8721L36.4263 30.5767L34.7298 31.8721L35.3781 29.7757L33.6816 28.4793H35.7791L36.4263 26.3818Z" fill="#4A4A4C"/>
<path d="M5.05375 9.58398L5.70093 11.6794H7.79836L6.10195 12.9778L6.75016 15.0742L5.05375 13.7789L3.35734 15.0742L4.00554 12.9778L2.30811 11.6794H4.40554L5.05375 9.58398Z" fill="#4A4A4C"/>
<path d="M37.9954 17.7554L38.6426 19.8528H40.74L39.0436 21.1492L39.6918 23.2467L37.9954 21.9513L36.299 23.2456L36.9472 21.1482L35.2498 19.8518H37.3462L37.9954 17.7554Z" fill="#4A4A4C"/>
<path d="M3.48563 17.7554L4.13384 19.8528H6.23025L4.53486 21.1482L5.18307 23.2456L3.48563 21.9502L1.7882 23.2456L2.4364 21.1482L0.73999 19.8528H2.83743L3.48563 17.7554Z" fill="#4A4A4C"/>
<path d="M5.05375 26.3818L5.70093 28.4793H7.79836L6.10195 29.7757L6.74913 31.8721L5.05375 30.5767L3.35734 31.8721L4.00554 29.7757L2.30811 28.4803H4.40554L5.05375 26.3818Z" fill="#4A4A4C"/>
<path d="M30.9348 33.4404L31.582 35.5368H33.6794L31.982 36.8332L32.6302 38.9297L30.9348 37.6353L29.2384 38.9307L29.8866 36.8343L28.1902 35.5379H30.2876L30.9348 33.4404Z" fill="#4A4A4C"/>
<path d="M12.1123 3.63721L12.7595 5.73054H14.857L13.1605 7.03003L13.8088 9.12644L12.1123 7.83003L10.4159 9.12746L11.0641 7.03105L9.3667 5.73054H11.4641L12.1123 3.63721Z" fill="#4A4A4C"/>
<path d="M10.5442 33.4404L11.1924 35.5379H13.2898L11.5934 36.8332L12.2416 38.9307L10.5442 37.6353L8.84777 38.9307L9.49597 36.8332L7.79956 35.5389H9.89597L10.5442 33.4404Z" fill="#4A4A4C"/>
<path fill-rule="evenodd" clip-rule="evenodd" d="M24.2015 19.3565H24.7481C25.0426 19.3617 25.323 19.4833 25.5279 19.6948C25.7328 19.9062 25.8456 20.1903 25.8415 20.4848V25.013C25.8456 25.3072 25.733 25.5912 25.5283 25.8026C25.3235 26.014 25.0434 26.1358 24.7492 26.1412H16.7297C16.4352 26.136 16.1548 26.0144 15.9499 25.8029C15.745 25.5915 15.6322 25.3074 15.6363 25.013V20.4899C15.6322 20.1954 15.745 19.9114 15.9499 19.6999C16.1548 19.4884 16.4352 19.3668 16.7297 19.3617H17.2763V17.6601C17.2625 17.1967 17.3419 16.7352 17.5097 16.3029C17.6775 15.8707 17.9304 15.4765 18.2533 15.1438C18.5763 14.8111 18.9627 14.5466 19.3898 14.366C19.8168 14.1854 20.2757 14.0923 20.7394 14.0923C21.2031 14.0923 21.662 14.1854 22.0891 14.366C22.5161 14.5466 22.9026 14.8111 23.2255 15.1438C23.5484 15.4765 23.8013 15.8707 23.9691 16.3029C24.137 16.7352 24.2163 17.1967 24.2025 17.6601L24.2015 19.3565ZM19.0989 17.6591V19.3555H22.381V17.6591C22.381 17.4436 22.3385 17.2302 22.256 17.0311C22.1736 16.832 22.0527 16.6511 21.9003 16.4987C21.7479 16.3463 21.567 16.2255 21.3679 16.143C21.1688 16.0605 20.9554 16.0181 20.7399 16.0181C20.5244 16.0181 20.311 16.0605 20.1119 16.143C19.9128 16.2255 19.7319 16.3463 19.5795 16.4987C19.4272 16.6511 19.3063 16.832 19.2238 17.0311C19.1414 17.2302 19.0989 17.4436 19.0989 17.6591Z" fill="#4A4A4C"/>
</g>
<defs>
<clipPath id="clip0_69_1857">
<rect width="40" height="40" fill="white" transform="translate(0.73999 0.5)"/>
</clipPath>
</defs>
</svg>
