<svg width="126" height="32" viewBox="0 0 126 32" fill="none" xmlns="http://www.w3.org/2000/svg">
<g id="Link - MailerLite &#226;&#134;&#146; SVG" clip-path="url(#clip0_69_1966)">
<g id="mailerlite-light">
<g id="Group">
<g id="mailer">
<path id="Shape" d="M16.3626 17.0234C14.2852 17.0234 12.6348 17.8418 11.4681 19.4504C10.7851 18.2087 9.41919 17.0234 7.34186 17.0234C5.20762 17.0234 3.95554 17.9547 3.07338 18.9424V18.6602C3.07338 17.8418 2.39043 17.1645 1.56519 17.1645C0.739949 17.1645 0.0854492 17.8418 0.0854492 18.6602V30.0336C0.0854492 30.852 0.739949 31.5011 1.56519 31.5011C2.39043 31.5011 3.07338 30.852 3.07338 30.0336V22.1597C3.75634 21.0591 4.78077 19.8173 6.63045 19.8173C8.39475 19.8173 9.07771 20.664 9.07771 22.8653V30.0336C9.07771 30.852 9.73221 31.5011 10.5574 31.5011C11.3827 31.5011 12.0656 30.852 12.0656 30.0336V22.1597C12.7486 21.0591 13.773 19.8173 15.6227 19.8173C17.387 19.8173 18.07 20.664 18.07 22.8653V30.0336C18.07 30.852 18.7245 31.5011 19.5497 31.5011C20.3749 31.5011 21.0579 30.852 21.0579 30.0336V22.3855C21.1148 19.7891 19.6351 17.0234 16.3626 17.0234ZM30.7047 17.0234C29.0542 17.0234 27.546 17.3338 25.9809 18.0111C25.4402 18.2369 25.0987 18.6884 25.0987 19.2811C25.0987 20.0149 25.6679 20.5793 26.3793 20.5793C26.4931 20.5793 26.6354 20.5511 26.8061 20.5229C27.859 20.1842 28.855 19.902 30.2778 19.902C32.5828 19.902 33.5503 20.7486 33.5788 22.837H30.6193C26.5785 22.837 24.1881 24.5586 24.1881 27.4089C24.1881 30.2029 26.5216 31.6704 28.8265 31.6704C30.6762 31.6704 32.2698 31.106 33.5788 30.0336V30.0618C33.5788 30.8802 34.2333 31.5293 35.0585 31.5293C35.8837 31.5293 36.5667 30.8802 36.5667 30.0618V22.5548C36.5667 19.7891 34.7455 17.0234 30.7047 17.0234ZM29.7371 28.9329C28.0582 28.9329 27.1761 28.312 27.1761 27.0985C27.1761 26.647 27.1761 25.2923 30.9323 25.2923H33.5503V27.1267C32.782 27.9734 31.3307 28.9329 29.7371 28.9329ZM42.4287 11.7177C43.3394 11.7177 44.0792 12.4514 44.0792 13.3545V13.4674C44.0792 14.3705 43.3394 15.1043 42.4287 15.1043H42.258C41.3474 15.1043 40.6075 14.3705 40.6075 13.4674V13.3545C40.6075 12.4514 41.3474 11.7177 42.258 11.7177H42.4287ZM42.3434 17.1362C43.1971 17.1362 43.8516 17.8136 43.8516 18.632V30.0053C43.8516 30.8238 43.1971 31.4729 42.3434 31.4729C41.5181 31.4729 40.8636 30.8238 40.8636 30.0053V18.632C40.8636 17.7853 41.5181 17.1362 42.3434 17.1362ZM49.9413 11.2943C50.795 11.2943 51.4495 11.9717 51.4495 12.7901V30.0053C51.4495 30.8238 50.795 31.4729 49.9413 31.4729C49.116 31.4729 48.4615 30.8238 48.4615 30.0053V12.7901C48.4615 11.9434 49.116 11.2943 49.9413 11.2943ZM61.8076 17.0234C59.6734 17.0234 57.9091 17.8136 56.7139 19.3093C55.6895 20.6075 55.1203 22.3855 55.1203 24.3328C55.1203 28.9047 57.8237 31.6422 62.3199 31.6422C64.7956 31.6422 66.0192 31.0778 67.129 30.4287C67.6697 30.1182 67.9542 29.6667 67.9542 29.2151C67.9542 28.4814 67.3567 27.8887 66.5883 27.8887C66.3607 27.8887 66.1615 27.9169 65.9907 28.0298C65.194 28.4532 64.198 28.82 62.519 28.82C60.0149 28.82 58.5351 27.6629 58.1652 25.4616H66.9013C67.7835 25.4616 68.4095 24.8408 68.4095 23.9941C68.4665 19.1964 65.0232 17.0234 61.8076 17.0234ZM61.8076 19.6198C63.0597 19.6198 65.1655 20.3253 65.4501 22.9217H58.1652C58.4498 20.6357 60.1572 19.6198 61.8076 19.6198ZM78.8531 17.0234C79.6783 17.0234 80.3044 17.6442 80.3044 18.4627C80.3044 19.2811 79.6783 19.8738 78.7962 19.8738H78.6539C77.1172 19.8738 75.7513 20.6357 74.7838 22.0186V30.0053C74.7838 30.8238 74.1008 31.4729 73.2756 31.4729C72.4504 31.4729 71.7959 30.8238 71.7959 30.0053V18.632C71.7959 17.8136 72.4504 17.1362 73.2756 17.1362C74.1008 17.1362 74.7838 17.8136 74.7838 18.632V18.9989C75.979 17.7007 77.288 17.0234 78.7108 17.0234H78.8531Z" fill="black"/>
</g>
<g id="lite">
<path id="Shape-path" d="M121.066 0.229347H90.3682C88.0024 0.229347 86.0405 2.17211 86.0405 4.51485V18.7999V21.5997V31.7421L92.0127 25.8852H121.095C123.461 25.8852 125.422 23.9425 125.422 21.5997V4.51485C125.394 2.14354 123.461 0.229347 121.066 0.229347Z" fill="#09C269"/>
<path id="Shape-path-3" d="M115.412 10.1717C118.701 10.1717 120.202 12.7716 120.202 15.1715C120.202 15.8286 119.711 16.2857 119.047 16.2857H112.988C113.277 17.7428 114.316 18.5142 115.96 18.5142C117.143 18.5142 117.807 18.257 118.384 17.9713C118.528 17.8856 118.672 17.857 118.845 17.857C119.423 17.857 119.884 18.3142 119.884 18.8856C119.884 19.257 119.653 19.5998 119.249 19.8284C118.442 20.2855 117.576 20.6855 115.787 20.6855C112.556 20.6855 110.594 18.7141 110.594 15.4286C110.594 11.5716 113.19 10.1717 115.412 10.1717ZM105.775 8.48608C106.151 8.48608 106.41 8.77178 106.41 9.14319V10.3431H108.257C108.834 10.3431 109.295 10.8003 109.295 11.3717C109.295 11.9431 108.834 12.4002 108.257 12.4002H106.439V17.7713C106.439 18.5427 106.843 18.5999 107.391 18.5999C107.709 18.5999 107.882 18.5427 108.055 18.5142C108.199 18.4856 108.343 18.4284 108.516 18.4284C108.978 18.4284 109.497 18.7999 109.497 19.3998C109.469 19.7712 109.267 20.1141 108.891 20.2855C108.343 20.5426 107.795 20.6569 107.189 20.6569C105.198 20.6569 104.131 19.7141 104.131 17.9142V12.4002H103.092C102.717 12.4002 102.457 12.1145 102.457 11.7716C102.457 11.5716 102.544 11.3717 102.717 11.2288L105.256 8.74321C105.314 8.68607 105.516 8.48608 105.775 8.48608ZM94.0903 6.14334C94.7251 6.14334 95.2444 6.6576 95.2444 7.28614V19.4284C95.2444 20.0569 94.7251 20.5426 94.0903 20.5426C93.4556 20.5426 92.9651 20.0284 92.9651 19.4284V7.28614C92.9651 6.6576 93.4556 6.14334 94.0903 6.14334ZM99.4568 10.2574C100.092 10.2574 100.611 10.7717 100.611 11.4002V19.4284C100.611 20.0569 100.092 20.5426 99.4568 20.5426C98.8221 20.5426 98.3316 20.0284 98.3316 19.4284V11.4002C98.3316 10.7717 98.8221 10.2574 99.4568 10.2574ZM115.441 12.2002C114.345 12.2002 113.19 12.8573 112.988 14.3715H117.922C117.691 12.8573 116.537 12.2002 115.441 12.2002ZM99.5145 6.42904C100.207 6.42904 100.755 6.97187 100.755 7.65755V7.74326C100.755 8.42894 100.207 8.97177 99.5145 8.97177H99.3991C98.7067 8.97177 98.1585 8.42894 98.1585 7.74326V7.65755C98.1585 6.97187 98.7067 6.42904 99.3991 6.42904H99.5145Z" fill="white"/>
</g>
</g>
</g>
</g>
<defs>
<clipPath id="clip0_69_1966">
<rect width="125.48" height="32" fill="white"/>
</clipPath>
</defs>
</svg>
