<svg width="17" height="16" viewBox="0 0 17 16" fill="none" xmlns="http://www.w3.org/2000/svg">
<path d="M4.54004 1.33333L2.54004 3.99999V13.3333C2.54004 13.6869 2.68051 14.0261 2.93056 14.2761C3.18061 14.5262 3.51975 14.6667 3.87337 14.6667H13.2067C13.5603 14.6667 13.8995 14.5262 14.1495 14.2761C14.3996 14.0261 14.54 13.6869 14.54 13.3333V3.99999L12.54 1.33333H4.54004Z" stroke="black" stroke-width="1.5" stroke-linecap="round" stroke-linejoin="round"/>
<path d="M2.54004 4H14.54" stroke="black" stroke-width="1.5" stroke-linecap="round" stroke-linejoin="round"/>
<path d="M11.2069 6.66667C11.2069 7.37392 10.9259 8.05219 10.4258 8.55229C9.92572 9.05239 9.24745 9.33334 8.5402 9.33334C7.83296 9.33334 7.15468 9.05239 6.65458 8.55229C6.15449 8.05219 5.87354 7.37392 5.87354 6.66667" stroke="black" stroke-width="1.5" stroke-linecap="round" stroke-linejoin="round"/>
</svg>
