<svg width="20" height="20" viewBox="0 0 20 20" fill="none" xmlns="http://www.w3.org/2000/svg">
<path d="M4.0477 1.66675C2.73446 1.66675 1.66675 2.73446 1.66675 4.0477V15.9525C1.66675 17.2657 2.73446 18.3334 4.0477 18.3334H15.9525C17.2657 18.3334 18.3334 17.2657 18.3334 15.9525V4.0477C18.3334 2.73446 17.2657 1.66675 15.9525 1.66675H4.0477ZM15.1005 4.79175L11.2389 9.20391L15.7813 15.2084H12.2247L9.44208 11.5663L6.2538 15.2084H4.48669L8.61616 10.4874L4.25976 4.79175H7.90559L10.4242 8.12136L13.3334 4.79175H15.1005ZM13.6942 14.1518L7.37359 5.79249H6.32076L12.7122 14.1518H13.6906H13.6942Z" fill="#181819" fill-opacity="0.5"/>
</svg>
