<svg width="20" height="20" viewBox="0 0 20 20" fill="none" xmlns="http://www.w3.org/2000/svg">
<g clip-path="url(#clip0_69_1838)">
<path d="M17.9526 5.41492C18.3334 6.89992 18.3334 9.99992 18.3334 9.99992C18.3334 9.99992 18.3334 13.0999 17.9526 14.5849C17.7409 15.4058 17.1217 16.0516 16.3376 16.2699C14.9134 16.6666 10.0001 16.6666 10.0001 16.6666C10.0001 16.6666 5.08925 16.6666 3.66258 16.2699C2.87508 16.0483 2.25675 15.4033 2.04758 14.5849C1.66675 13.0999 1.66675 9.99992 1.66675 9.99992C1.66675 9.99992 1.66675 6.89992 2.04758 5.41492C2.25925 4.59409 2.87841 3.94825 3.66258 3.72992C5.08925 3.33325 10.0001 3.33325 10.0001 3.33325C10.0001 3.33325 14.9134 3.33325 16.3376 3.72992C17.1251 3.95159 17.7434 4.59659 17.9526 5.41492ZM8.33341 12.9166L13.3334 9.99992L8.33341 7.08325V12.9166Z" fill="#181819" fill-opacity="0.5"/>
</g>
<defs>
<clipPath id="clip0_69_1838">
<rect width="20" height="20" fill="white"/>
</clipPath>
</defs>
</svg>
